<svg width="194" height="47" viewBox="0 0 194 47" fill="none" xmlns="http://www.w3.org/2000/svg">
<path d="M4.82848 8.74005C6.86455 8.74005 8.51512 7.08826 8.51512 5.05069C8.51512 3.01311 6.86455 1.36133 4.82848 1.36133C2.79241 1.36133 1.14185 3.01311 1.14185 5.05069C1.14185 7.08826 2.79241 8.74005 4.82848 8.74005Z" fill="#4386D1"/>
<path fill-rule="evenodd" clip-rule="evenodd" d="M30.0125 20.1206C31.2545 20.4135 32.527 20.5565 33.803 20.5467C35.4306 20.5201 37.034 20.1482 38.5073 19.4555C39.8586 22.5629 40.2884 25.9936 39.7454 29.3386C39.2024 32.6836 37.7095 35.8017 35.4447 38.3212C33.18 40.8407 30.2389 42.6551 26.9723 43.5483C23.7057 44.4414 20.2513 44.3755 17.021 43.3584V37.1229H8.1627C5.74741 33.9583 4.4712 30.0701 4.54105 26.0887C4.6109 22.1073 6.02271 18.2662 8.54752 15.1885C11.0723 12.1108 14.562 9.97689 18.4507 9.13288C22.3394 8.28887 26.3989 8.78425 29.971 10.5387L30.0125 20.1206ZM22.2654 35.273C24.0133 35.273 25.7219 34.7543 27.1753 33.7825C28.6286 32.8107 29.7613 31.4294 30.4302 29.8134C31.0991 28.1974 31.2741 26.4191 30.9331 24.7035C30.5921 22.9879 29.7504 21.4121 28.5145 20.1752C27.2785 18.9384 25.7038 18.096 23.9895 17.7548C22.2752 17.4135 20.4983 17.5887 18.8834 18.2581C17.2686 18.9275 15.8883 20.061 14.9172 21.5154C13.9462 22.9698 13.4278 24.6797 13.4278 26.4289C13.4278 28.7745 14.3589 31.024 16.0163 32.6826C17.6737 34.3412 19.9215 35.273 22.2654 35.273Z" fill="#4EBA85"/>
<path d="M14.705 39.4189H0V46.4235H14.705V39.4189Z" fill="#F6C050"/>
<path d="M32.3179 18.0415C33.6187 18.3069 34.9628 18.2731 36.2487 17.9427C37.5346 17.6123 38.7286 16.9939 39.7408 16.1341C40.7529 15.2744 41.5567 14.1958 42.0914 12.9797C42.6261 11.7636 42.8777 10.4419 42.8274 9.11429C42.8508 7.94053 42.6429 6.77365 42.2156 5.68031C41.7883 4.58697 41.1499 3.58859 40.3369 2.7422C39.5239 1.89582 38.5523 1.21801 37.4775 0.747498C36.4027 0.276986 35.2458 0.0229885 34.0729 1.54315e-05C33.4829 -0.00113087 32.8944 0.0615892 32.3179 0.187082V18.0415Z" fill="#EC7D79"/>
<path d="M194 33.8067C194 34.3868 193.828 34.9538 193.506 35.436C193.183 35.9182 192.725 36.2938 192.19 36.5153C191.654 36.7368 191.065 36.7942 190.496 36.6803C189.928 36.5664 189.406 36.2862 188.997 35.8753C188.588 35.4644 188.31 34.9412 188.198 34.3721C188.086 33.8029 188.146 33.2133 188.369 32.6779C188.592 32.1426 188.969 31.6856 189.452 31.3648C189.935 31.0441 190.502 30.8739 191.082 30.876C191.466 30.876 191.846 30.9519 192.201 31.0993C192.556 31.2467 192.878 31.4627 193.149 31.735C193.42 32.0073 193.635 32.3304 193.781 32.686C193.927 33.0415 194.001 33.4223 194 33.8067Z" fill="#212121"/>
<path d="M62.5486 16.3164C59.8429 16.3164 57.248 17.3913 55.3338 19.3049C53.4197 21.2185 52.343 23.8143 52.3402 26.5219V46.4237H56.4215V34.7424C58.1892 36.0621 60.3434 36.7599 62.5486 36.7274C65.2532 36.7274 67.8471 35.6522 69.7596 33.7383C71.6721 31.8244 72.7465 29.2286 72.7465 26.5219C72.7465 23.8152 71.6721 21.2194 69.7596 19.3055C67.8471 17.3916 65.2532 16.3164 62.5486 16.3164ZM66.8271 30.866C65.6813 32.0045 64.1321 32.6435 62.5174 32.6435C60.9027 32.6435 59.3535 32.0045 58.2077 30.866C57.0649 29.722 56.423 28.1707 56.423 26.5531C56.423 24.9355 57.0649 23.3842 58.2077 22.2402C58.7697 21.6564 59.4424 21.1906 60.1864 20.8699C60.9304 20.5493 61.7308 20.3803 62.5409 20.3727C63.3509 20.3652 64.1543 20.5193 64.9041 20.8261C65.654 21.1328 66.3352 21.586 66.908 22.1593C67.4808 22.7325 67.9337 23.4142 68.2402 24.1646C68.5467 24.915 68.7007 25.719 68.6932 26.5296C68.6856 27.3402 68.5167 28.1412 68.1963 28.8858C67.8759 29.6303 67.4105 30.3035 66.8271 30.866Z" fill="#212121"/>
<path d="M85.8312 36.728C88.2128 36.7329 90.5206 35.9017 92.3529 34.3793L89.7567 31.2615C88.6635 32.1959 87.2688 32.7017 85.8312 32.6853C84.5596 32.6929 83.317 32.3049 82.2752 31.5752C81.2334 30.8454 80.4439 29.8097 80.0157 28.6114H96.0292V26.5329C96.0395 24.4998 95.4457 22.5095 94.3234 20.8147C93.2011 19.12 91.6008 17.7972 89.7258 17.0144C87.8508 16.2316 85.7856 16.0241 83.7925 16.4182C81.7994 16.8123 79.9683 17.7903 78.5317 19.228C77.0951 20.6656 76.1178 22.4981 75.724 24.4927C75.3301 26.4873 75.5375 28.554 76.3197 30.4304C77.1019 32.3068 78.4237 33.9083 80.1172 35.0314C81.8108 36.1545 83.7996 36.7487 85.8312 36.7384V36.728ZM85.8312 20.4013C87.0921 20.4185 88.318 20.8181 89.3471 21.5474C90.3762 22.2766 91.1599 23.3011 91.5948 24.4856H80.0157C80.4537 23.2929 81.2454 22.2626 82.2848 21.5327C83.3241 20.8028 84.5615 20.408 85.8312 20.4013Z" fill="#212121"/>
<path d="M128.503 36.7274C130.519 36.7274 132.491 36.1289 134.168 35.0075C135.845 33.8861 137.152 32.2922 137.924 30.4274C138.696 28.5626 138.898 26.5106 138.505 24.5309C138.111 22.5512 137.14 20.7328 135.714 19.3055C134.287 17.8783 132.47 16.9063 130.492 16.5125C128.514 16.1187 126.463 16.3208 124.6 17.0933C122.737 17.8657 121.144 19.1738 120.023 20.852C118.903 22.5303 118.305 24.5034 118.305 26.5219C118.305 29.2286 119.379 31.8244 121.291 33.7383C123.204 35.6522 125.798 36.7274 128.503 36.7274ZM124.162 22.2402C124.724 21.6564 125.396 21.1906 126.14 20.8699C126.884 20.5493 127.685 20.3803 128.495 20.3727C129.305 20.3652 130.108 20.5193 130.858 20.8261C131.608 21.1328 132.289 21.586 132.862 22.1593C133.435 22.7325 133.888 23.4142 134.194 24.1646C134.501 24.915 134.655 25.719 134.647 26.5296C134.64 27.3402 134.471 28.1412 134.15 28.8858C133.83 29.6303 133.364 30.3035 132.781 30.866C131.635 32.0045 130.086 32.6435 128.471 32.6435C126.857 32.6435 125.307 32.0045 124.162 30.866C123.019 29.722 122.377 28.1707 122.377 26.5531C122.377 24.9355 123.019 23.3842 124.162 22.2402Z" fill="#212121"/>
<path d="M157.58 18.3543C156.064 17.2126 154.26 16.5164 152.37 16.344C150.48 16.1715 148.58 16.5296 146.882 17.3779C145.184 18.2263 143.757 19.5315 142.759 21.1468C141.761 22.7622 141.233 24.6239 141.234 26.5229C141.319 29.1745 142.431 31.6893 144.335 33.5351C146.239 35.3809 148.786 36.4129 151.438 36.4129C154.089 36.4129 156.636 35.3809 158.54 33.5351C160.444 31.6893 161.556 29.1745 161.641 26.5229V6.62109H157.559L157.58 18.3543ZM155.773 30.8669C154.627 32.0055 153.078 32.6444 151.463 32.6444C149.849 32.6444 148.3 32.0055 147.154 30.8669C146.011 29.7229 145.369 28.1716 145.369 26.554C145.369 24.9365 146.011 23.3851 147.154 22.2411C147.716 21.6573 148.388 21.1915 149.133 20.8709C149.877 20.5502 150.677 20.3812 151.487 20.3737C152.297 20.3662 153.1 20.5203 153.85 20.827C154.6 21.1338 155.281 21.587 155.854 22.1602C156.427 22.7334 156.88 23.4152 157.186 24.1655C157.493 24.9159 157.647 25.7199 157.639 26.5305C157.632 27.3412 157.463 28.1422 157.142 28.8867C156.822 29.6313 156.357 30.3045 155.773 30.8669Z" fill="#212121"/>
<path d="M174.466 36.7267C176.847 36.728 179.154 35.8973 180.988 34.378L178.392 31.2602C177.293 32.1796 175.898 32.6704 174.466 32.6424C173.195 32.65 171.952 32.2621 170.91 31.5323C169.868 30.8025 169.079 29.7668 168.651 28.5685H184.664V26.49C184.668 24.4582 184.069 22.4709 182.943 20.7803C181.817 19.0896 180.215 17.7717 178.339 16.9937C176.463 16.2157 174.399 16.0126 172.408 16.4103C170.417 16.808 168.589 17.7884 167.156 19.2273C165.722 20.6662 164.748 22.4988 164.357 24.4925C163.965 26.4862 164.174 28.5513 164.958 30.4259C165.741 32.3005 167.063 33.9001 168.755 35.0219C170.448 36.1436 172.436 36.737 174.466 36.7267ZM174.466 20.4C175.727 20.4172 176.953 20.8168 177.982 21.5461C179.011 22.2753 179.795 23.2998 180.23 24.4843H168.609C169.05 23.285 169.848 22.25 170.895 21.5195C171.943 20.789 173.189 20.3982 174.466 20.4Z" fill="#212121"/>
<path d="M113.102 31.2399L115.73 34.3576C114.243 35.6211 112.426 36.4325 110.494 36.6959C108.561 36.9593 106.594 36.6638 104.824 35.8442C103.053 35.0246 101.555 33.7152 100.504 32.0706C99.4539 30.4261 98.8958 28.515 98.8958 26.5632C98.8958 24.6114 99.4539 22.7003 100.504 21.0558C101.555 19.4112 103.053 18.1018 104.824 17.2822C106.594 16.4626 108.561 16.1671 110.494 16.4305C112.426 16.6939 114.243 17.5053 115.73 18.7688L113.092 21.8865C112.337 21.2474 111.439 20.7999 110.474 20.5822C109.509 20.3646 108.506 20.383 107.55 20.6361C106.593 20.8892 105.712 21.3694 104.981 22.036C104.25 22.7025 103.69 23.5358 103.35 24.465C103.009 25.3942 102.898 26.392 103.025 27.3736C103.151 28.3552 103.513 29.2917 104.079 30.1035C104.645 30.9153 105.398 31.5786 106.275 32.0369C107.151 32.4953 108.125 32.7352 109.114 32.7364C110.581 32.7364 111.997 32.2047 113.102 31.2399Z" fill="#212121"/>
</svg>
